<?xml version="1.0" encoding="UTF-8" standalone="no"?>
<!-- Created with Inkscape (http://www.inkscape.org/) -->

<svg
   xmlns:dc="http://purl.org/dc/elements/1.1/"
   xmlns:cc="http://creativecommons.org/ns#"
   xmlns:rdf="http://www.w3.org/1999/02/22-rdf-syntax-ns#"
   xmlns:svg="http://www.w3.org/2000/svg"
   xmlns="http://www.w3.org/2000/svg"
   xmlns:xlink="http://www.w3.org/1999/xlink"
   xmlns:sodipodi="http://sodipodi.sourceforge.net/DTD/sodipodi-0.dtd"
   xmlns:inkscape="http://www.inkscape.org/namespaces/inkscape"
   height="37"
   id="svg1"
   inkscape:version="0.48.1 "
   sodipodi:docname="image_empty.svg"
   sodipodi:version="0.32"
   width="37"
   inkscape:output_extension="org.inkscape.output.svg.inkscape"
   inkscape:export-filename="C:\Documents and Settings\All Users\Documents\Ubuntu Brig\Andy Fitzsimon\gnome-mime-image.png"
   inkscape:export-xdpi="90"
   inkscape:export-ydpi="90"
   version="1.1">
  <metadata
     id="metadata3">
    <rdf:RDF>
      <cc:Work
         rdf:about="">
        <dc:title></dc:title>
        <dc:description />
        <dc:subject>
          <rdf:Bag>
            <rdf:li>hash</rdf:li>
            <rdf:li />
            <rdf:li>mime-types</rdf:li>
            <rdf:li>computer</rdf:li>
            <rdf:li>icons</rdf:li>
          </rdf:Bag>
        </dc:subject>
        <dc:publisher>
          <cc:Agent
             rdf:about="http://www.openclipart.org">
            <dc:title>Andy Fitzsimon</dc:title>
          </cc:Agent>
        </dc:publisher>
        <dc:creator>
          <cc:Agent>
            <dc:title>Andy Fitzsimon</dc:title>
          </cc:Agent>
        </dc:creator>
        <dc:rights>
          <cc:Agent>
            <dc:title>Andy Fitzsimon</dc:title>
          </cc:Agent>
        </dc:rights>
        <dc:date />
        <dc:format>image/svg+xml</dc:format>
        <dc:type
           rdf:resource="http://purl.org/dc/dcmitype/StillImage" />
        <cc:license
           rdf:resource="http://web.resource.org/cc/PublicDomain" />
        <dc:language>en</dc:language>
      </cc:Work>
      <cc:License
         rdf:about="http://web.resource.org/cc/PublicDomain">
        <cc:permits
           rdf:resource="http://web.resource.org/cc/Reproduction" />
        <cc:permits
           rdf:resource="http://web.resource.org/cc/Distribution" />
        <cc:permits
           rdf:resource="http://web.resource.org/cc/DerivativeWorks" />
      </cc:License>
    </rdf:RDF>
  </metadata>
  <defs
     id="defs3">
    <linearGradient
       id="linearGradient2387">
      <stop
         id="stop2388"
         offset="0.0000000"
         style="stop-color:#ffffff;stop-opacity:0.0000000;" />
      <stop
         id="stop2389"
         offset="1"
         style="stop-color:#fff;stop-opacity:1;" />
    </linearGradient>
    <linearGradient
       id="linearGradient2386"
       x1="-35.702682"
       x2="-35.492294"
       xlink:href="#linearGradient2387"
       y1="-357.06226"
       y2="-426.30698"
       gradientTransform="scale(2.216078,0.45124766)"
       gradientUnits="userSpaceOnUse" />
    <linearGradient
       id="linearGradient1507">
      <stop
         id="stop1508"
         offset="0.0000000"
         style="stop-color:#000000;stop-opacity:0.095505618;" />
      <stop
         id="stop1510"
         offset="1.0000000"
         style="stop-color:#000000;stop-opacity:0.0000000;" />
    </linearGradient>
    <linearGradient
       id="linearGradient1501">
      <stop
         id="stop1502"
         offset="0.0000000"
         style="stop-color:#ffffff;stop-opacity:1.0000000;" />
      <stop
         id="stop1504"
         offset="1.0000000"
         style="stop-color:#ffffff;stop-opacity:0.0000000;" />
    </linearGradient>
    <linearGradient
       id="linearGradient1492">
      <stop
         id="stop1493"
         offset="0.0000000"
         style="stop-color:#dadada;stop-opacity:1.0000000;" />
      <stop
         id="stop1496"
         offset="0.34923077"
         style="stop-color:#f1f1f1;stop-opacity:1.0000000;" />
      <stop
         id="stop1494"
         offset="1.0000000"
         style="stop-color:#f0f0f0;stop-opacity:1.0000000;" />
    </linearGradient>
    <linearGradient
       id="linearGradient1495"
       x1="728.96643"
       x2="351.7063"
       xlink:href="#linearGradient1492"
       y1="230.07422"
       y2="689.86005"
       gradientTransform="matrix(0.06336723,0,0,0.06957899,-15.634547,-7.1465812)"
       gradientUnits="userSpaceOnUse" />
    <linearGradient
       id="linearGradient1497"
       x1="741.63898"
       x2="622.33325"
       xlink:href="#linearGradient1492"
       y1="169.4436"
       y2="287.73825"
       gradientTransform="matrix(0.06335845,0,0,0.06958865,-15.63455,-7.1465813)"
       gradientUnits="userSpaceOnUse" />
    <linearGradient
       id="linearGradient1506"
       x1="201.38963"
       x2="547.80804"
       xlink:href="#linearGradient1507"
       y1="843.20789"
       y2="383.76529"
       gradientTransform="scale(0.94468882,1.0585496)"
       gradientUnits="userSpaceOnUse" />
    <linearGradient
       id="linearGradient2407"
       x1="242.41805"
       x2="148.12051"
       xlink:href="#linearGradient2387"
       y1="787.27155"
       y2="490.80032"
       gradientTransform="scale(1.2317827,0.81183151)"
       gradientUnits="userSpaceOnUse" />
    <linearGradient
       id="linearGradient1063"
       x1="-99.985313"
       x2="-53.732742"
       xlink:href="#linearGradient1501"
       y1="-140.38152"
       y2="-199.8438"
       gradientTransform="scale(1.5604203,0.64085297)"
       gradientUnits="userSpaceOnUse" />
    <linearGradient
       inkscape:collect="always"
       xlink:href="#linearGradient1507"
       id="linearGradient3135"
       x1="207.86864"
       y1="836.03088"
       x2="544.78693"
       y2="389.18799"
       gradientTransform="scale(0.94318133,1.0602415)"
       gradientUnits="userSpaceOnUse" />
    <linearGradient
       inkscape:collect="always"
       xlink:href="#linearGradient1507"
       id="linearGradient3137"
       x1="204.63277"
       y1="839.61707"
       x2="546.29553"
       y2="386.48169"
       gradientTransform="scale(0.94394176,1.0593874)"
       gradientUnits="userSpaceOnUse" />
    <linearGradient
       inkscape:collect="always"
       xlink:href="#linearGradient1507"
       id="linearGradient3139"
       x1="201.38963"
       y1="843.20789"
       x2="547.80804"
       y2="383.76529"
       gradientTransform="scale(0.94468882,1.0585496)"
       gradientUnits="userSpaceOnUse" />
    <filter
       id="filter3141"
       inkscape:label="Desaturate"
       x="0"
       y="0"
       width="1"
       height="1"
       inkscape:menu="Color"
       inkscape:menu-tooltip="Render in shades of gray by reducing saturation to zero"
       color-interpolation-filters="sRGB">
      <feColorMatrix
         id="feColorMatrix3143"
         type="saturate"
         values="0" />
    </filter>
    <filter
       id="filter3145"
       inkscape:label="Desaturate"
       x="0"
       y="0"
       width="1"
       height="1"
       inkscape:menu="Color"
       inkscape:menu-tooltip="Render in shades of gray by reducing saturation to zero"
       color-interpolation-filters="sRGB">
      <feColorMatrix
         id="feColorMatrix3147"
         type="saturate"
         values="0" />
    </filter>
    <filter
       id="filter3149"
       inkscape:label="Desaturate"
       x="0"
       y="0"
       width="1"
       height="1"
       inkscape:menu="Color"
       inkscape:menu-tooltip="Render in shades of gray by reducing saturation to zero"
       color-interpolation-filters="sRGB">
      <feColorMatrix
         id="feColorMatrix3151"
         type="saturate"
         values="0" />
    </filter>
    <filter
       id="filter3153"
       inkscape:label="Desaturate"
       x="0"
       y="0"
       width="1"
       height="1"
       inkscape:menu="Color"
       inkscape:menu-tooltip="Render in shades of gray by reducing saturation to zero"
       color-interpolation-filters="sRGB">
      <feColorMatrix
         id="feColorMatrix3155"
         type="saturate"
         values="0" />
    </filter>
    <filter
       id="filter3157"
       inkscape:label="Desaturate"
       x="0"
       y="0"
       width="1"
       height="1"
       inkscape:menu="Color"
       inkscape:menu-tooltip="Render in shades of gray by reducing saturation to zero"
       color-interpolation-filters="sRGB">
      <feColorMatrix
         id="feColorMatrix3159"
         type="saturate"
         values="0" />
    </filter>
    <filter
       id="filter3161"
       inkscape:label="Desaturate"
       x="0"
       y="0"
       width="1"
       height="1"
       inkscape:menu="Color"
       inkscape:menu-tooltip="Render in shades of gray by reducing saturation to zero"
       color-interpolation-filters="sRGB">
      <feColorMatrix
         id="feColorMatrix3163"
         type="saturate"
         values="0" />
    </filter>
  </defs>
  <sodipodi:namedview
     bordercolor="#666666"
     borderopacity="1.0"
     id="base"
     inkscape:cx="71.49426"
     inkscape:cy="66.903506"
     inkscape:pageopacity="0.0"
     inkscape:pageshadow="2"
     inkscape:window-height="721"
     inkscape:window-width="1024"
     inkscape:window-x="-4"
     inkscape:window-y="24"
     inkscape:zoom="2.3549538"
     pagecolor="#ffffff"
     showgrid="false"
     inkscape:current-layer="svg1"
     inkscape:window-maximized="1"
     fit-margin-top="0"
     fit-margin-left="0"
     fit-margin-right="0"
     fit-margin-bottom="0" />
  <path
     d="m 4.1169349,1.9028391 0,8.2319629 0,8.231966 0,8.231963 0,8.231965 7.4949651,0 7.494964,0 7.494965,0 7.494965,0 0,-8.231965 0,-8.231963 0,-8.231966 -7.494965,-8.2319629 -7.494965,0 -7.494964,0 -7.4949651,0 z"
     id="path930"
     sodipodi:nodetypes="cccccccccccccccc"
     style="fill:#ffffff;fill-rule:evenodd;stroke-width:0.42649042999999998;stroke-opacity:0.36477984000000002;filter:url(#filter3141)"
     inkscape:connector-curvature="0" />
  <g
     id="g1552"
     style="fill:url(#linearGradient1506);filter:url(#filter3145)"
     transform="matrix(0.06799617,0,0,0.06667536,-7.9240011,-24.719914)">
    <path
       d="m 173.35959,408.8126 0,122.261 0,122.261 0,122.261 0,122.261 108.76228,0 108.7623,0 108.76229,0 108.76228,0 0,-122.261 0,-122.261 0,-122.261 -108.76228,-122.261 -108.76229,0 -108.7623,0 -108.76228,0 z"
       id="path1505"
       sodipodi:nodetypes="cccccccccccccccc"
       style="fill:url(#linearGradient3135);fill-opacity:0.75;fill-rule:evenodd;stroke-width:0.95407495pt"
       inkscape:connector-curvature="0" />
    <path
       d="m 170.125,407.1875 c 0,164.63542 0,329.27083 0,493.90625 147.17708,0 294.35417,0 441.53125,0 0,-123.76042 0,-247.52083 0,-371.28125 -36.84707,-41.42272 -73.68021,-82.85915 -110.5625,-124.25 -110.32292,0 -220.64583,0 -330.96875,0 0,0.33333 0,1.41667 0,1.625 z"
       id="path1538"
       style="fill:url(#linearGradient3137);fill-opacity:0.75;fill-rule:evenodd;stroke-width:0.95407495pt"
       inkscape:connector-curvature="0" />
    <path
       d="m 166.875,403.9375 c 0,166.80208 0,333.60417 0,500.40625 149.34375,0 298.6875,0 448.03125,0 0,-125.26042 0,-250.52083 0,-375.78125 -37.45108,-42.08952 -74.88871,-84.19233 -112.375,-126.25 -111.88542,0 -223.77083,0 -335.65625,0 0,0.33333 0,1.41667 0,1.625 z"
       id="path1543"
       style="fill:url(#linearGradient3139);fill-opacity:0.75;fill-rule:evenodd;stroke-width:0.95407495pt"
       inkscape:connector-curvature="0" />
  </g>
  <path
     d="m 4.1292479,1.9436569 0,8.2319641 0,8.231965 0,8.231963 0,8.231965 7.4949651,0 7.494965,0 7.494965,0 7.494965,0 0,-8.231965 0,-8.231963 0,-8.231965 -7.494965,-8.2319641 -7.494965,0 -7.494965,0 -7.4949651,0 z"
     id="rect900"
     sodipodi:nodetypes="cccccccccccccccc"
     style="fill:url(#linearGradient1495);fill-opacity:1;fill-rule:evenodd;stroke:#000000;stroke-width:0.42649042999999998;stroke-opacity:0.36477984000000002;filter:url(#filter3149)"
     inkscape:connector-curvature="0" />
  <g
     id="g3370"
     transform="matrix(0.21356879,0,0,0.21406441,37.490169,55.763835)"
     style="filter:url(#filter3153)">
    <path
       d="m 126.42298,530.03046 0,487.80854 302.30905,0 1.50193,-392.61561 -68.06764,-95.19293 -235.74334,0 z"
       id="path1007"
       sodipodi:nodetypes="cccccc"
       style="fill:#46a046;fill-rule:evenodd;stroke-width:1pt"
       transform="matrix(0.394837,0,0,0.273242,-195.3479,-384.739)"
       inkscape:connector-curvature="0" />
    <path
       d="m 126.42298,528.70866 0,241.22774 c 106.05687,34.36674 164.27743,-86.66404 303.37924,8.50539 l 0.67554,-153.88055 -63.39457,-95.85258 -240.66021,0 z"
       id="path1008"
       sodipodi:nodetypes="cccccc"
       style="fill:#9db8d2;fill-rule:evenodd;stroke-width:1pt"
       transform="matrix(0.394837,0,0,0.273242,-195.3479,-384.739)"
       inkscape:connector-curvature="0" />
    <path
       d="m 138.32851,592.70961 c -1.05608,-54.14191 35.51678,-48.79816 125.24338,-48.79816 89.7266,0 153.28294,16.82374 158.89085,80.38008 5.60791,63.55634 -194.20715,104.30752 -244.67837,107.11147 -50.47121,2.80396 -38.39978,-83.00505 -39.45586,-138.69339 z"
       id="path1009"
       sodipodi:nodetypes="cczzz"
       style="fill:url(#linearGradient2407);fill-opacity:1;fill-rule:evenodd;stroke-width:1pt"
       transform="matrix(0.394837,0,0,0.273242,-195.3479,-384.739)"
       inkscape:connector-curvature="0" />
    <path
       d="m -122.56215,-170.31124 c 11.48168,-0.18058 38.906747,-9.17873 58.209799,-8.8177 19.310104,0.36117 35.488834,6.50108 37.054517,9.39044 1.565687,2.88937 0.521895,14.808 0.521895,14.808 l -118.549701,-0.26104 0.15483,-17.82881 c 8.85684,2.80924 10.60509,2.8897 22.60866,2.70911 z"
       id="path1010"
       sodipodi:nodetypes="czccccz"
       style="fill:url(#linearGradient2386);fill-opacity:1;fill-rule:evenodd;stroke-width:1pt"
       inkscape:connector-curvature="0" />
    <path
       d="m -142.71246,-150.21508 c 0,0 15.85208,23.64845 30.96619,24.47063 15.535389,0.84511 25.263871,-1.4002 37.948796,11.14892 12.684926,12.54912 43.969091,7.551 42.383475,-6.19327 -1.585616,-13.74428 -32.338442,-17.85482 -41.852136,-13.0742 -9.513695,4.78062 -54.647245,-3.80296 -58.347015,-11.57147 -3.69977,-7.7685 -13.46007,-10.63361 -10.84393,-4.29535"
       id="path1613"
       sodipodi:nodetypes="czzzccc"
       style="fill:url(#linearGradient1063);fill-opacity:1;fill-rule:evenodd;stroke-width:1pt"
       inkscape:connector-curvature="0" />
  </g>
  <path
     d="m 6.4858809,4.3709357 0,28.5326053 25.4921641,0 0.126648,-23.7680134 -4.671108,-4.7645919 -20.9477041,0 z"
     id="path2674"
     sodipodi:nodetypes="cccccc"
     style="fill:none;stroke:#ffffff;stroke-width:1.70000005000000010;stroke-opacity:1;filter:url(#filter3157)"
     inkscape:connector-curvature="0" />
  <path
     d="M 34.109098,10.175621 C 31.849476,9.5051074 28.921505,9.6001842 26.709613,9.9823582 c 0.38191,-2.456269 0.42965,-5.5345817 -0.09548,-8.0387013 l 7.494965,8.2319641 z"
     id="path906"
     sodipodi:nodetypes="cccc"
     style="fill:url(#linearGradient1497);fill-opacity:1;fill-rule:evenodd;stroke-width:0.95407494999999998pt;filter:url(#filter3161)"
     inkscape:connector-curvature="0" />
</svg>
